<svg viewBox="0 0 48 48" fill="none" xmlns="http://www.w3.org/2000/svg">
    <g clip-path="url(#clip0_164_1033)">
        <path d="M0 22.8197C0 12.0624 0 6.6837 3.342 3.34185C6.68355 0 12.0623 0 22.8195 0H25.1802C35.9375 0 41.3162 0 44.658 3.342C48 6.68355 48 12.0623 48 22.8195V25.1802C48 35.9375 48 41.3162 44.6581 44.658C41.3163 47.9998 35.9376 48 25.1803 48H22.8197C12.0624 48 6.6837 48 3.34185 44.6581C0 41.3163 0 35.9376 0 25.1803V22.8197Z" fill="#0077FF"></path>
        <path d="M18.5 19.5C20.7091 19.5 22.5 21.2909 22.5 23.5V47.999C11.9555 47.9987 6.65038 47.9668 3.3418 44.6582C-2.02175e-05 41.3164 3.17861e-10 35.9377 0 25.1807V22.8193C0 21.6509 0.00157528 20.5458 0.00585938 19.5H18.5Z" fill="#01EAFF"></path>
        <path d="M38.5 19.5C39.6045 19.5 40.4999 20.3955 40.5 21.5V31C40.5 32.1046 39.6046 33 38.5 33H29C27.8954 33 27 32.1046 27 31V21.5C27.0001 20.3955 27.8955 19.5 29 19.5H38.5ZM48 22.8193V25.1807C48 28.1815 47.9974 30.7637 47.9248 33H45.5C44.3954 33 43.5 32.1046 43.5 31V21.5C43.5001 20.3955 44.3955 19.5 45.5 19.5H47.9941C47.9984 20.5458 48 21.6509 48 22.8193ZM38.5 3C39.6046 3 40.5 3.89543 40.5 5V14.5C40.5 15.6046 39.6046 16.5 38.5 16.5H29C27.8954 16.5 27 15.6046 27 14.5V5C27 3.89543 27.8954 3 29 3H38.5ZM44.6582 3.3418C47.2695 5.95274 47.8381 9.80768 47.9629 16.5H45.5C44.3954 16.5 43.5 15.6046 43.5 14.5V5C43.5 4.23927 43.9245 3.57739 44.5498 3.23926C44.5855 3.27376 44.623 3.30656 44.6582 3.3418Z" fill="white"></path>
    </g>
    <defs>
        <clipPath id="clip0_164_1033">
            <rect width="48" height="48" fill="white"></rect>
        </clipPath>
    </defs>
</svg>