<svg width="32" height="32" viewBox="0 0 32 32" fill="none" xmlns="http://www.w3.org/2000/svg">
    <path d="M0 15.2131C0 8.0416 0 4.4558 2.228 2.2279C4.4557 0 8.0415 0 15.213 0H16.7868C23.9583 0 27.5441 0 29.772 2.228C32 4.4557 32 8.0415 32 15.213V16.7868C32 23.9583 32 27.5441 29.7721 29.772C27.5442 31.9999 23.9584 32 16.7869 32H15.2131C8.0416 32 4.4558 32 2.2279 29.7721C0 27.5442 0 23.9584 0 16.7869V15.2131Z"
          fill="#0077FF"/>
    <path d="M31.9072 9C31.9976 10.7079 32 12.7486 32 15.2129V16.7871C32 23.9584 32.0003 27.5446 29.7725 29.7725C27.5446 32.0003 23.9584 32 16.7871 32H15.2129C12.2481 32 9.89651 31.9963 8 31.8389V26.4365C8 25.3418 8.44844 24.294 9.24121 23.5391L23.3506 10.1035C24.0943 9.39537 25.0815 9.00008 26.1084 9H31.9072Z"
          fill="#01EAFF"/>
    <path d="M27 9C25 9 24 10.5 24 13V18C24 21.3137 21.3137 24 18 24C18 24 13.5 24 12 24C10.5 24 8 25 8 28V26.4365C8 25.3418 8.44844 24.294 9.24121 23.5391L23.3506 10.1035C24.0943 9.39537 25.0815 9.00008 26.1084 9H27Z"
          fill="white"/>
</svg>