<svg viewBox="0 0 48 48" fill="none" xmlns="http://www.w3.org/2000/svg">
    <g clip-path="url(#clip0_164_2199)">
        <path d="M0 22.8197C0 12.0624 0 6.6837 3.342 3.34185C6.68355 0 12.0623 0 22.8195 0H25.1802C35.9375 0 41.3162 0 44.658 3.342C48 6.68355 48 12.0623 48 22.8195V25.1802C48 35.9375 48 41.3162 44.6581 44.658C41.3163 47.9998 35.9376 48 25.1803 48H22.8197C12.0624 48 6.6837 48 3.34185 44.6581C0 41.3163 0 35.9376 0 25.1803V22.8197Z" fill="#0077FF"></path>
        <path d="M28.0005 24.5C28.0005 18.1487 22.8513 12.9995 16.5 12.9995C10.1487 12.9995 4.99951 18.1487 4.99951 24.5C4.99951 30.8513 10.1487 36.0005 16.5 36.0005V38C9.04416 38 3 31.9558 3 24.5C3 17.0442 9.04416 11 16.5 11C23.9558 11 30 17.0442 30 24.5C30 31.9558 23.9558 38 16.5 38V36.0005C22.8513 36.0005 28.0005 30.8513 28.0005 24.5Z" fill="white"></path>
        <path d="M36.0005 24.5C36.0005 18.1487 30.8513 12.9995 24.5 12.9995C18.1487 12.9995 12.9995 18.1487 12.9995 24.5C12.9995 30.8513 18.1487 36.0005 24.5 36.0005V38L23.8057 37.9824C16.6725 37.621 11 31.723 11 24.5C11 17.0442 17.0442 11 24.5 11L25.1943 11.0176C32.3275 11.379 38 17.277 38 24.5C38 31.9558 31.9558 38 24.5 38V36.0005C30.8513 36.0005 36.0005 30.8513 36.0005 24.5Z" fill="#01EAFF"></path>
        <path d="M32.5 36.0005V38C32.3381 38 32.1771 37.9925 32.0166 37.9868L32.0869 35.9932C32.2237 35.998 32.3618 36.0005 32.5 36.0005ZM32.9819 37.9868C32.8219 37.9924 32.6614 38 32.5 38V36.0005C32.6382 36.0005 32.7763 35.998 32.9131 35.9932L32.9819 37.9868ZM30.4551 35.8188C30.7227 35.8668 30.994 35.9054 31.2681 35.9346L31.1611 36.9277L31.1626 36.9292L31.0703 37.7876L31.0557 37.9209C30.7341 37.8867 30.4164 37.8396 30.1021 37.7832L30.4551 35.8188ZM34.7222 36.8032L34.8965 37.7832C34.5821 37.8396 34.2644 37.8867 33.9429 37.9209L33.9297 37.7876L33.8374 36.9292L33.7319 35.9346C34.006 35.9054 34.2773 35.8668 34.5449 35.8188L34.7222 36.8032ZM28.8672 35.4146C29.1254 35.5004 29.3878 35.5783 29.6538 35.646L29.1602 37.5825C28.8472 37.5029 28.5396 37.4097 28.2358 37.3086L28.8672 35.4146ZM36.4478 36.3638L36.7627 37.3086C36.4589 37.4096 36.1513 37.5029 35.8384 37.5825L35.7373 37.1812L35.3462 35.646C35.6122 35.5783 35.8746 35.5004 36.1328 35.4146L36.4478 36.3638ZM27.3525 34.7876C27.5962 34.9098 27.8451 35.0225 28.0981 35.1274L27.7144 36.0503L27.7158 36.0518L27.332 36.9731C27.0344 36.8497 26.7425 36.7155 26.4561 36.5718L27.3525 34.7876ZM38.5425 36.5718C38.256 36.7155 37.9642 36.8497 37.6665 36.9731L37.2842 36.0518L36.9019 35.1274C37.1549 35.0225 37.4038 34.9098 37.6475 34.7876L38.5425 36.5718ZM25.9419 33.9482C26.1663 34.1043 26.3963 34.2535 26.6318 34.3936L25.6108 36.1104C25.3344 35.946 25.0655 35.7705 24.8022 35.5874L25.9419 33.9482ZM39.6294 34.77L40.1963 35.5874C39.933 35.7705 39.6642 35.946 39.3877 36.1104L38.3682 34.3936C38.6037 34.2535 38.8337 34.1043 39.0581 33.9482L39.6294 34.77ZM24.6646 32.917C24.8649 33.1036 25.071 33.284 25.2842 33.4561L24.6558 34.2324L24.6572 34.2339L24.105 34.918L24.0303 35.0088C23.78 34.8069 23.5373 34.5964 23.3022 34.3774L24.6646 32.917ZM41.6963 34.3774C41.4612 34.5964 41.2185 34.8069 40.9683 35.0088L40.3428 34.2339L39.7158 33.4561C39.929 33.284 40.1351 33.1036 40.3354 32.917L41.6963 34.3774ZM23.5439 31.7158C23.716 31.929 23.8964 32.1351 24.083 32.3354L22.6211 33.6963C22.4022 33.4612 22.1916 33.2185 21.9897 32.9683L23.5439 31.7158ZM42.2324 32.3428L42.7627 32.7705L43.0088 32.9683C42.8069 33.2185 42.5964 33.4612 42.3774 33.6963L40.917 32.3354C41.1036 32.1351 41.284 31.929 41.4561 31.7158L42.2324 32.3428ZM22.6064 30.3682C22.7465 30.6037 22.8957 30.8337 23.0518 31.0581L22.2285 31.6279L22.23 31.6294L21.4111 32.1963C21.2281 31.933 21.0525 31.6642 20.8882 31.3877L22.6064 30.3682ZM42.3936 30.3682L44.1104 31.3877C43.946 31.6642 43.7705 31.933 43.5874 32.1963L42.77 31.6294L41.9482 31.0581C42.1043 30.8337 42.2535 30.6037 42.3936 30.3682ZM21.8726 28.9019C21.9775 29.1549 22.0902 29.4038 22.2124 29.6475L20.4268 30.5425C20.2831 30.256 20.1488 29.9641 20.0254 29.6665L21.8726 28.9019ZM44.0503 29.2842L44.9731 29.6665C44.8497 29.9642 44.7155 30.256 44.5718 30.5425L42.7876 29.6475C42.9098 29.4038 43.0225 29.1549 43.1274 28.9019L44.0503 29.2842ZM21.354 27.3462C21.4217 27.6122 21.4996 27.8746 21.5854 28.1328L20.6348 28.4478L20.6362 28.4492L19.6899 28.7627C19.5889 28.4589 19.4956 28.1513 19.416 27.8384L21.354 27.3462ZM45.5825 27.8384C45.5029 28.1513 45.4096 28.4589 45.3086 28.7627L44.3638 28.4492L43.4146 28.1328C43.5004 27.8746 43.5783 27.6122 43.646 27.3462L45.5825 27.8384ZM21.0654 25.7319C21.0946 26.006 21.1332 26.2773 21.1812 26.5449L20.1953 26.7207L20.1968 26.7222L19.2153 26.8965C19.159 26.5821 19.1118 26.2644 19.0776 25.9429L21.0654 25.7319ZM44.9277 25.8374L45.9209 25.9429C45.8867 26.2644 45.8396 26.5821 45.7832 26.8965L44.8032 26.7222L43.8188 26.5449C43.8668 26.2773 43.9054 26.006 43.9346 25.7319L44.9277 25.8374ZM19 24.5C19 24.3381 19.0061 24.1771 19.0117 24.0166L21.0068 24.0869C21.002 24.2237 20.9995 24.3618 20.9995 24.5C20.9995 24.6382 21.002 24.7763 21.0068 24.9131L20.0078 24.9482L19.0117 24.9819C19.0061 24.8219 19 24.6614 19 24.5ZM45.9868 24.9819L44.9922 24.9482L43.9932 24.9131C43.998 24.7763 44.0005 24.6382 44.0005 24.5C44.0005 24.3618 43.998 24.2237 43.9932 24.0869L45.9868 24.0166C45.9925 24.1771 46 24.3381 46 24.5C46 24.6614 45.9924 24.8219 45.9868 24.9819ZM20.1968 22.2778L21.1812 22.4551C21.1332 22.7227 21.0946 22.994 21.0654 23.2681L20.0708 23.1611L19.0776 23.0557C19.1118 22.7342 19.159 22.4164 19.2153 22.1021L20.1968 22.2778ZM45.7832 22.1021C45.8396 22.4164 45.8867 22.7341 45.9209 23.0557L44.9292 23.1626L44.9277 23.1611L43.9346 23.2681C43.9054 22.994 43.8668 22.7227 43.8188 22.4551L45.7832 22.1021ZM20.6362 20.5508L21.5854 20.8672C21.4996 21.1254 21.4217 21.3878 21.354 21.6538L19.416 21.1602C19.4956 20.8473 19.5889 20.5396 19.6899 20.2358L20.6362 20.5508ZM45.3086 20.2358C45.4097 20.5396 45.5029 20.8472 45.5825 21.1602L43.646 21.6538C43.5783 21.3878 43.5004 21.1254 43.4146 20.8672L45.3086 20.2358ZM22.2124 19.3525C22.0902 19.5962 21.9775 19.8451 21.8726 20.0981L20.9482 19.7144L20.0254 19.332C20.1488 19.0344 20.2831 18.7425 20.4268 18.4561L22.2124 19.3525ZM44.5718 18.4561C44.7155 18.7425 44.8497 19.0344 44.9731 19.332L44.0518 19.7158L44.0503 19.7144L43.1274 20.0981C43.0225 19.8451 42.9098 19.5962 42.7876 19.3525L44.5718 18.4561ZM23.0518 17.9419C22.8957 18.1663 22.7465 18.3963 22.6064 18.6318L21.6514 18.0649L20.8882 17.6108C21.0525 17.3344 21.2281 17.0655 21.4111 16.8022L23.0518 17.9419ZM43.5874 16.8022C43.7705 17.0655 43.946 17.3344 44.1104 17.6108L43.3486 18.0649L42.3936 18.6318C42.2535 18.3963 42.1043 18.1663 41.9482 17.9419L43.3486 16.9692L43.5874 16.8022ZM24.083 16.6646C23.8964 16.8649 23.716 17.071 23.5439 17.2842L22.7661 16.6558L21.9897 16.0303C22.1916 15.7801 22.4022 15.5373 22.6211 15.3022L24.083 16.6646ZM42.3774 15.3022C42.5964 15.5373 42.8069 15.78 43.0088 16.0303L42.2339 16.6572L42.2324 16.6558L41.4561 17.2842C41.284 17.071 41.1036 16.8649 40.917 16.6646L42.3774 15.3022ZM24.209 14.2124L25.2842 15.5439C25.071 15.716 24.8649 15.8964 24.6646 16.083L23.3022 14.6211C23.5373 14.4022 23.7801 14.1916 24.0303 13.9897L24.209 14.2124ZM40.9683 13.9897C41.2185 14.1916 41.4612 14.4022 41.6963 14.6211L40.3354 16.083C40.1351 15.8964 39.929 15.716 39.7158 15.5439L40.791 14.2124L40.9683 13.9897ZM26.6318 14.6064C26.3963 14.7465 26.1663 14.8957 25.9419 15.0518L25.1318 13.8872L24.8022 13.4111C25.0655 13.2281 25.3344 13.0525 25.6108 12.8882L26.6318 14.6064ZM39.3877 12.8882C39.6642 13.0525 39.933 13.2281 40.1963 13.4111L39.8682 13.8872L39.0581 15.0518C38.8337 14.8957 38.6037 14.7465 38.3682 14.6064L39.3877 12.8882ZM27.7158 12.9482L28.0981 13.8726C27.8451 13.9775 27.5962 14.0902 27.3525 14.2124L26.4561 12.4268C26.7425 12.2831 27.0344 12.1488 27.332 12.0254L27.7158 12.9482ZM37.6665 12.0254C37.9641 12.1488 38.256 12.2831 38.5425 12.4268L37.6475 14.2124C37.4038 14.0902 37.1549 13.9775 36.9019 13.8726L37.6665 12.0254ZM29.6538 13.354C29.3878 13.4217 29.1254 13.4996 28.8672 13.5854L28.5479 12.6289L28.2358 11.6899C28.5396 11.5889 28.8473 11.4956 29.1602 11.416L29.6538 13.354ZM35.8384 11.416C36.1513 11.4956 36.4589 11.5889 36.7627 11.6899L36.4521 12.6289L36.1328 13.5854C35.8746 13.4996 35.6122 13.4217 35.3462 13.354L35.8384 11.416ZM31.1567 12.0283L31.2681 13.0654C30.994 13.0946 30.7227 13.1332 30.4551 13.1812L30.2778 12.1953L30.1021 11.2153C30.4164 11.159 30.7342 11.1118 31.0557 11.0776L31.1567 12.0283ZM33.9429 11.0776C34.2644 11.1118 34.5821 11.159 34.8965 11.2153L34.7222 12.1968L34.7207 12.1953L34.5449 13.1812C34.2773 13.1332 34.006 13.0946 33.7319 13.0654L33.8433 12.0283L33.9429 11.0776ZM32.9819 11.0117L32.9131 13.0068C32.7763 13.002 32.6382 12.9995 32.5 12.9995C32.3618 12.9995 32.2237 13.002 32.0869 13.0068L32.0166 11.0117C32.1771 11.0061 32.3381 11 32.5 11C32.6614 11 32.8219 11.0061 32.9819 11.0117Z" fill="white"></path>
    </g>
    <defs>
        <clipPath id="clip0_164_2199">
            <rect width="48" height="48" fill="white"></rect>
        </clipPath>
    </defs>
</svg>