<svg viewBox="0 0 48 48" fill="none" xmlns="http://www.w3.org/2000/svg">
    <path d="M0 22.8197C0 12.0624 0 6.6837 3.342 3.34185C6.68355 0 12.0623 0 22.8195 0H25.1802C35.9375 0 41.3162 0 44.658 3.342C48 6.68355 48 12.0623 48 22.8195V25.1802C48 35.9375 48 41.3162 44.6581 44.658C41.3163 47.9998 35.9376 48 25.1803 48H22.8197C12.0624 48 6.6837 48 3.34185 44.6581C0 41.3163 0 35.9376 0 25.1803V22.8197Z"
          fill="#0077FF"/>
    <path d="M37.4965 38.2623C37.4969 38.2625 37.4973 38.2627 37.4977 38.2627C37.499 38.2627 37.5 38.2637 37.5 38.265V44.025C37.5 45.0893 36.9361 46.074 36.0181 46.6126L26.2681 52.3329C25.3307 52.8829 24.1693 52.8829 23.2319 52.3329L13.4819 46.6126C12.5639 46.074 12 45.0893 12 44.025V38.265C12 38.2637 12.001 38.2627 12.0023 38.2627C12.0027 38.2627 12.0031 38.2625 12.0035 38.2623L23.2319 31.6748C24.1693 31.1248 25.3307 31.1248 26.2681 31.6748L37.4965 38.2623Z"
          fill="#01EAFF"/>
    <path d="M37.4965 26.2623C37.4969 26.2625 37.4973 26.2627 37.4977 26.2627C37.499 26.2627 37.5 26.2637 37.5 26.265V32.025C37.5 33.0893 36.9361 34.074 36.0181 34.6126L26.2681 40.3329C25.3307 40.8829 24.1693 40.8829 23.2319 40.3329L13.4819 34.6126C12.5639 34.074 12 33.0893 12 32.025V26.265C12 26.2637 12.001 26.2627 12.0023 26.2627C12.0027 26.2627 12.0031 26.2625 12.0035 26.2623L23.2319 19.6748C24.1693 19.1248 25.3307 19.1248 26.2681 19.6748L37.4965 26.2623Z"
          fill="white"/>
    <path d="M37.4977 14.2615C37.4979 14.2617 37.4982 14.2618 37.4985 14.2618C37.4993 14.2618 37.5 14.2624 37.5 14.2633V20.0241C37.5 21.0884 36.9361 22.0731 36.0181 22.6116L26.2681 28.332C25.3307 28.882 24.1693 28.882 23.2319 28.332L13.4819 22.6117C12.5639 22.0731 12 21.0884 12 20.0241V14.2633C12 14.2624 12.0007 14.2618 12.0015 14.2618C12.0018 14.2618 12.0021 14.2617 12.0023 14.2615L23.2319 7.67298C24.1692 7.123 25.3308 7.123 26.2681 7.67298L37.4977 14.2615Z"
          fill="#01EAFF"/>
</svg>