<svg viewBox="0 0 48 48" fill="none" xmlns="http://www.w3.org/2000/svg">
    <g clip-path="url(#clip0_164_162)">
        <path d="M0 22.8197C0 12.0624 0 6.6837 3.342 3.34185C6.68355 0 12.0623 0 22.8195 0H25.1802C35.9375 0 41.3162 0 44.658 3.342C48 6.68355 48 12.0623 48 22.8195V25.1802C48 35.9375 48 41.3162 44.6581 44.658C41.3163 47.9998 35.9376 48 25.1803 48H22.8197C12.0624 48 6.6837 48 3.34185 44.6581C0 41.3163 0 35.9376 0 25.1803V22.8197Z" fill="#0077FF"></path>
        <path d="M45.1484 3.87988C47.9976 7.25693 48 12.6194 48 22.8193V25.1807C48 35.9375 47.9999 41.3164 44.6582 44.6582C41.3164 48.0001 35.9369 48 25.1797 48H22.8193C12.6193 48 7.25721 47.9974 3.87988 45.1484L45.1484 3.87988Z" fill="#01EAFF"></path>
        <path d="M19.6816 20.3027L14.3027 25.6816L19.6816 31.0605V35.3027L10.0605 25.6816L19.6816 16.0605V20.3027Z" fill="white"></path>
        <path d="M28.5 20.3027L33.8789 25.6816L28.5 31.0605V35.3027L38.1211 25.6816L28.5 16.0605V20.3027Z" fill="white"></path>
    </g>
    <defs>
        <clipPath id="clip0_164_162">
            <rect width="48" height="48" fill="white"></rect>
        </clipPath>
    </defs>
</svg>