<svg width="32" height="32" viewBox="0 0 32 32" fill="none" xmlns="http://www.w3.org/2000/svg" class="size-8 flex-none transition-all duration-500">
<path d="M0 15.2131C0 8.0416 0 4.4558 2.228 2.2279C4.4557 0 8.0415 0 15.213 0H16.7868C23.9583 0 27.5441 0 29.772 2.228C32 4.4557 32 8.0415 32 15.213V16.7868C32 23.9583 32 27.5441 29.7721 29.772C27.5442 31.9999 23.9584 32 16.7869 32H15.2131C8.0416 32 4.4558 32 2.2279 29.7721C0 27.5442 0 23.9584 0 16.7869V15.2131Z" fill="#0077FF"/>
<path d="M13.7392 24.7145H10.0725L8.83369 21.2212H0.880768L-0.382781 24.7145H-4L2.6646 7.2478H7.27284L13.7392 24.7145ZM4.64664 10.9146L2.04522 18.0499H7.7188L5.21648 10.9146H4.64664Z" fill="#00EAFF"/><path d="M20.3129 15.7458C21.2544 16.0101 21.9811 16.4973 22.4932 17.2075C23.0052 17.9013 23.2612 18.7519 23.2612 19.7594C23.2612 20.7504 23.0217 21.6176 22.5427 22.3608C22.0637 23.1041 21.3783 23.6822 20.4864 24.0951C19.5944 24.508 18.5621 24.7145 17.3894 24.7145H9.95679V7.2478H16.8691C18.0253 7.2478 19.0411 7.45427 19.9165 7.86719C20.8084 8.2636 21.4939 8.82517 21.9729 9.55192C22.4684 10.2787 22.7162 11.1045 22.7162 12.0295C22.7162 12.8884 22.5014 13.6399 22.072 14.284C21.6591 14.9282 21.0727 15.4154 20.3129 15.7458ZM13.4254 10.2456V14.4327H16.8691C17.5959 14.4327 18.1657 14.2427 18.5787 13.8629C19.0081 13.483 19.2228 12.9792 19.2228 12.3516C19.2228 11.7074 19.0081 11.1954 18.5787 10.8155C18.1657 10.4356 17.5959 10.2456 16.8691 10.2456H13.4254ZM17.3894 21.7167C18.0997 21.7167 18.6612 21.5185 19.0742 21.1221C19.5036 20.7257 19.7183 20.2054 19.7183 19.5612C19.7183 18.9336 19.5036 18.4215 19.0742 18.0251C18.6612 17.6287 18.0997 17.4305 17.3894 17.4305H13.4254V21.7167H17.3894Z" fill="#00EAFF"/>
<path d="M13.739 24.7144H10.072L9.95679 24.3892V14.4976L13.739 24.7144Z" fill="white"/>
<path d="M27.9727 24.9622C26.321 24.9622 24.8345 24.5823 23.5131 23.8225C22.2083 23.0462 21.1842 21.9809 20.441 20.6265C19.7142 19.2556 19.3508 17.703 19.3508 15.9687C19.3508 14.251 19.7225 12.7149 20.4657 11.3605C21.209 9.98957 22.233 8.92423 23.5379 8.16445C24.8592 7.38815 26.354 7 28.0222 7C29.8721 7 31.4908 7.47073 32.8782 8.4122C34.2822 9.33715 35.2815 10.6172 35.8761 12.2524L32.4323 12.8222C32.0689 11.9964 31.5073 11.3522 30.7475 10.8897C30.0043 10.4108 29.1371 10.1713 28.1461 10.1713C27.1386 10.1713 26.2384 10.419 25.4456 10.9145C24.6693 11.3935 24.0582 12.079 23.6122 12.9709C23.1828 13.8463 22.968 14.8456 22.968 15.9687C22.968 17.1084 23.1828 18.1242 23.6122 19.0161C24.0417 19.8915 24.6445 20.577 25.4208 21.0725C26.1971 21.5515 27.089 21.791 28.0966 21.791C29.0876 21.791 29.9795 21.5432 30.7723 21.0477C31.5817 20.5522 32.1763 19.875 32.5562 19.0161L35.9999 19.5859C35.3723 21.2376 34.34 22.5507 32.903 23.5252C31.466 24.4832 29.8226 24.9622 27.9727 24.9622Z" fill="#00EAFF"/>
<path d="M21.9729 9.55176C22.4684 10.2785 22.716 11.1044 22.7161 12.0293C22.7161 12.8882 22.501 13.64 22.0715 14.2842C21.6586 14.9282 21.0724 15.4158 20.3127 15.7461C21.2542 16.0104 21.9814 16.4978 22.4934 17.208C23.0052 17.9016 23.261 18.7524 23.261 19.7598C23.2609 20.7504 23.0219 21.6173 22.5432 22.3604C22.4339 22.53 22.3118 22.6903 22.1809 22.8428C21.4895 22.2189 20.9091 21.4804 20.4407 20.627C19.7139 19.2561 19.3508 17.703 19.3508 15.9688C19.3508 14.251 19.7228 12.7147 20.4661 11.3604C20.861 10.632 21.3355 9.9904 21.8889 9.43457C21.9167 9.47375 21.9464 9.51157 21.9729 9.55176Z" fill="white"/>
</svg>