<svg viewBox="0 0 48 48" fill="none" xmlns="http://www.w3.org/2000/svg">
    <g clip-path="url(#clip0_164_2337)">
        <g clip-path="url(#clip1_164_2337)">
            <path d="M0 22.8197C0 12.0624 0 6.6837 3.342 3.34185C6.68355 0 12.0623 0 22.8195 0H25.1802C35.9375 0 41.3162 0 44.658 3.342C48 6.68355 48 12.0623 48 22.8195V25.1802C48 35.9375 48 41.3162 44.6581 44.658C41.3163 47.9998 35.9376 48 25.1803 48H22.8197C12.0624 48 6.6837 48 3.34185 44.6581C0 41.3163 0 35.9376 0 25.1803V22.8197Z" fill="#0077FF"></path>
            <path d="M30.4756 22.1972C31.8415 22.9985 31.8415 25.0015 30.4756 25.8028L13.5732 35.718C12.2073 36.5192 10.5 35.5177 10.5 33.9152L10.5 14.0848C10.5 12.4823 12.2073 11.4808 13.5732 12.282L30.4756 22.1972Z" fill="#01EAFF"></path>
            <path d="M43.9756 22.1972C45.3415 22.9985 45.3415 25.0015 43.9756 25.8028L27.0732 35.718C25.7073 36.5192 24 35.5177 24 33.9152L24 14.0848C24 12.4823 25.7073 11.4808 27.0732 12.282L43.9756 22.1972Z" fill="#01EAFF"></path>
            <path d="M30.4756 22.1973C31.8414 22.9985 31.8414 25.0015 30.4756 25.8027L24 29.6006V18.3984L30.4756 22.1973Z" fill="white"></path>
            <path d="M57.4756 22.1972C58.8415 22.9985 58.8415 25.0015 57.4756 25.8028L40.5732 35.718C39.2073 36.5192 37.5 35.5177 37.5 33.9152L37.5 14.0848C37.5 12.4823 39.2073 11.4808 40.5732 12.282L57.4756 22.1972Z" fill="#01EAFF"></path>
            <path d="M43.9756 22.1973C45.3414 22.9985 45.3414 25.0015 43.9756 25.8027L37.5 29.6006V18.3984L43.9756 22.1973Z" fill="white"></path>
            <path d="M16.9756 22.1978C18.3413 22.999 18.3414 25.002 16.9756 25.8032L0.208008 35.6382C0.00041159 32.8575 0 29.4405 0 25.1802V22.8198C0 18.5589 0.000311665 15.1417 0.208008 12.3608L16.9756 22.1978Z" fill="#01EAFF"></path>
            <path d="M16.9756 22.1973C18.3414 22.9985 18.3414 25.0015 16.9756 25.8027L10.5 29.6006V18.3984L16.9756 22.1973Z" fill="white"></path>
        </g>
    </g>
    <defs>
        <clipPath id="clip0_164_2337">
            <rect width="48" height="48" fill="white"></rect>
        </clipPath>
        <clipPath id="clip1_164_2337">
            <rect width="48" height="48" fill="white"></rect>
        </clipPath>
    </defs>
</svg>