<svg viewBox="0 0 48 48" fill="none" xmlns="http://www.w3.org/2000/svg">
    <path d="M0 22.8197C0 12.0624 0 6.6837 3.342 3.34185C6.68355 0 12.0623 0 22.8195 0H25.1802C35.9375 0 41.3161 0 44.658 3.342C48 6.68355 48 12.0623 48 22.8195V25.1802C48 35.9375 48 41.3161 44.6581 44.658C41.3163 47.9998 35.9376 48 25.1803 48H22.8197C12.0624 48 6.6837 48 3.34185 44.6581C0 41.3163 0 35.9376 0 25.1803V22.8197Z" fill="#0077FF"></path>
    <path d="M22.7433 37C22.2301 37.8889 20.9471 37.8889 20.4339 37L7.15455 14C6.64134 13.1111 7.28284 12 8.30925 12L34.8672 12C35.8936 12 36.5351 13.1111 36.0219 14L22.7433 37Z" fill="white"></path>
    <path d="M27.332 37C26.8188 37.8889 25.5358 37.8889 25.0226 37L11.7436 14C11.2304 13.1111 11.8719 12 12.8983 12L39.4564 12C40.4828 12 41.1243 13.1111 40.6111 14L27.332 37Z" fill="#01EAFF"></path>
</svg>