<svg viewBox="0 0 48 48" fill="none" xmlns="http://www.w3.org/2000/svg">
    <path d="M0 22.8197C0 12.0624 0 6.6837 3.342 3.34185C6.68355 0 12.0623 0 22.8195 0H25.1802C35.9375 0 41.3162 0 44.658 3.342C48 6.68355 48 12.0623 48 22.8195V25.1802C48 35.9375 48 41.3162 44.6581 44.658C41.3163 47.9998 35.9376 48 25.1803 48H22.8197C12.0624 48 6.6837 48 3.34185 44.6581C0 41.3163 0 35.9376 0 25.1803V22.8197Z"
          fill="#0077FF"/>
    <path d="M24 16.8059C24 13.1262 24 11.2863 25.0943 10.5528C26.1884 9.81931 27.9496 10.4787 31.472 11.7974L32.2449 12.0868C35.7673 13.4054 37.5285 14.0648 38.6227 15.6177C39.717 17.1704 39.717 19.0103 39.717 22.69V23.4975C39.717 27.1772 39.717 29.0171 38.6228 29.7506C37.5285 30.4841 35.7673 29.8248 32.245 28.5061L31.472 28.2167C27.9497 26.898 26.1885 26.2386 25.0942 24.6858C24 23.133 24 21.2931 24 17.6134V16.8059Z"
          fill="white"/>
    <path d="M16.8916 20.9107C16.8916 17.231 16.8916 15.3911 17.9859 14.6577C19.08 13.9242 20.8412 14.5835 24.3636 15.9022L25.1365 16.1916C28.6589 17.5103 30.4201 18.1697 31.5143 19.7225C32.6086 21.2752 32.6086 23.1151 32.6086 26.7948V27.6024C32.6086 31.2821 32.6086 33.122 31.5144 33.8555C30.4201 34.5889 28.6589 33.9296 25.1366 32.6109L24.3636 32.3215C20.8413 31.0028 19.0801 30.3435 17.9858 28.7907C16.8916 27.2379 16.8916 25.398 16.8916 21.7183V20.9107Z"
          fill="#01EAFF"/>
    <path d="M9 24.5022C9 20.8225 9 18.9826 10.0943 18.2491C11.1884 17.5156 12.9496 18.175 16.472 19.4937L17.2449 19.783C20.7673 21.1017 22.5285 21.7611 23.6227 23.3139C24.717 24.8667 24.717 26.7066 24.717 30.3863V31.1938C24.717 34.8735 24.717 36.7134 23.6228 37.4469C22.5285 38.1804 20.7673 37.5211 17.245 36.2024L16.472 35.913C12.9497 34.5943 11.1885 33.9349 10.0942 32.3821C9 30.8293 9 28.9894 9 25.3097V24.5022Z"
          fill="white"/>
</svg>