<svg width="48" height="48" viewBox="0 0 48 48" fill="none" xmlns="http://www.w3.org/2000/svg">
    <path d="M0 22.8197C0 12.0624 0 6.6837 3.342 3.34185C6.68355 0 12.0623 0 22.8195 0H25.1802C35.9375 0 41.3161 0 44.658 3.342C48 6.68355 48 12.0623 48 22.8195V25.1802C48 35.9375 48 41.3161 44.6582 44.658C41.3163 47.9998 35.9376 48 25.1803 48H22.8197C12.0624 48 6.6837 48 3.34185 44.6582C0 41.3163 0 35.9376 0 25.1803V22.8197Z" fill="#0077FF"/>
    <mask id="mask" style="mask-type:alpha" maskUnits="userSpaceOnUse" x="0" y="0" width="48" height="48">
        <path d="M0 22.8197C0 12.0624 0 6.6837 3.342 3.34185C6.68355 0 12.0623 0 22.8195 0H25.1802C35.9375 0 41.3161 0 44.658 3.342C48 6.68355 48 12.0623 48 22.8195V25.1802C48 35.9375 48 41.3161 44.6582 44.658C41.3163 47.9998 35.9376 48 25.1803 48H22.8197C12.0624 48 6.6837 48 3.34185 44.6582C0 41.3163 0 35.9376 0 25.1803V22.8197Z" fill="white"/>
    </mask>
    <g mask="url(#mask)">
        <path d="M14.9475 11.4243C17.2185 9.68226 22.142 9.04058 24.3198 8.9375C16.8744 4.7585 12.1707 6.20057 10.7494 7.44397C10.621 7.72738 10.6517 8.43633 11.8023 9.00493C12.9529 9.57352 14.3785 10.8548 14.9475 11.4243Z" fill="white"/>
        <path d="M13.4536 11.733C0.531925 21.4797 1.04152 32.6386 2.91153 36.9998C-0.0848065 38.217 -2.56577 44.4514 -2.4581 47.7622C-2.37196 50.4109 -1.86133 50.1814 -1.61678 49.7355C-1.12613 48.387 1.18976 46.6398 2.28638 45.9348C5.22972 46.0568 6.98256 43.3942 7.49106 42.0477C10.3492 46.0428 16.1591 46.6293 17.8363 46.0355C18.0288 45.9939 18.4925 45.8242 18.8078 45.4779C19.5004 44.5863 17.0984 43.1231 15.8109 42.503C9.66008 39.4007 9.2425 35.7299 9.80255 34.2823C12.368 27.9115 20.4847 25.8061 26.7873 26.6949C31.3311 27.3357 36.033 29.9204 39.0487 32.7738C41.4612 35.0564 42.9155 34.7016 43.341 34.2389C44.5819 32.9429 42.6122 29.7599 41.4722 28.3304C42.3723 27.675 43.2086 26.2977 43.5143 25.6909C45.4944 21.51 41.3832 16.315 39.0801 14.2401C28.9236 5.57465 17.7639 8.95807 13.4536 11.733Z" fill="white"/>
        <path d="M45.9756 47.1972C47.3415 47.9985 47.3415 50.0015 45.9756 50.8028L29.0732 60.718C27.7073 61.5192 26 60.5177 26 58.9152L26 39.0848C26 37.4823 27.7073 36.4808 29.0732 37.282L45.9756 47.1972Z" fill="#01EAFF"/>
        <path d="M59.9756 47.1972C61.3415 47.9985 61.3415 50.0015 59.9756 50.8028L43.0732 60.718C41.7073 61.5192 40 60.5177 40 58.9152L40 39.0848C40 37.4823 41.7073 36.4808 43.0732 37.282L59.9756 47.1972Z" fill="#01EAFF"/>
        <path d="M31.9756 47.1972C33.3415 47.9985 33.3415 50.0015 31.9756 50.8028L15.0732 60.718C13.7073 61.5192 12 60.5177 12 58.9152L12 39.0848C12 37.4823 13.7073 36.4808 15.0732 37.282L31.9756 47.1972Z" fill="#01EAFF"/>
        <path d="M17.9756 47.1972C19.3415 47.9985 19.3415 50.0015 17.9756 50.8028L1.07317 60.718C-0.292685 61.5192 -2 60.5177 -2 58.9152L-2 39.0848C-2 37.4823 -0.292682 36.4808 1.07317 37.282L17.9756 47.1972Z" fill="#01EAFF"/>
    </g>
</svg>
